Coordinates
version=1
nRows=11
nColumns=40
inDegrees=yes

Units are S.I. units (second, meters, Newtons, ...)
If the header above contains a line with 'inDegrees', this indicates whether rotational values are in degrees (yes) or radians (no).

endheader
time	pelvis_tilt	pelvis_list	pelvis_rotation	pelvis_tx	pelvis_ty	pelvis_tz	hip_flexion_r	hip_adduction_r	hip_rotation_r	knee_angle_r	knee_angle_r_beta	ankle_angle_r	subtalar_angle_r	mtp_angle_r	hip_flexion_l	hip_adduction_l	hip_rotation_l	knee_angle_l	knee_angle_l_beta	ankle_angle_l	subtalar_angle_l	mtp_angle_l	lumbar_extension	lumbar_bending	lumbar_rotation	arm_flex_r	arm_add_r	arm_rot_r	elbow_flex_r	pro_sup_r	wrist_flex_r	wrist_dev_r	arm_flex_l	arm_add_l	arm_rot_l	elbow_flex_l	pro_sup_l	wrist_flex_l	wrist_dev_l
      4.26000000	    -51.55528456	     -8.59220996	     13.22648837	     -0.00282517	      0.55398463	     -1.20519536	    124.69994005	    -48.38012286	      6.74802747	     88.54113423	      1.54533432	     11.55514657	    -18.06621831	      0.00000000	    124.46623016	    -17.54356849	      1.51003182	     80.12742933	      1.39848746	      7.45237259	     -3.53600506	      0.00000000	      0.00000000	      0.00000000	      0.00000000	     44.99990653	    -14.99999999	     44.99990653	     75.00017585	     45.00000026	      0.00000000	      0.00000000	     44.99990653	    -14.99999999	     44.99990653	     75.00017585	     45.00000026	      0.00000000	      0.00000000
      4.26500000	    -51.55831411	     -8.58632735	     13.24509317	     -0.00324878	      0.55526922	     -1.20550279	    124.48857789	    -48.38424094	      6.58112340	     88.28336928	      1.54083547	     11.41554584	    -18.09291901	      0.00000000	    124.29695956	    -17.43898835	      1.44182425	     79.89923718	      1.39450476	      7.30668273	     -3.69951790	      0.00000000	      0.00000000	      0.00000000	      0.00000000	     44.99990724	    -14.99999999	     44.99990724	     75.00017585	     45.00000026	      0.00000000	      0.00000000	     44.99990724	    -14.99999999	     44.99990724	     75.00017585	     45.00000026	      0.00000000	      0.00000000
      4.27000000	    -51.60363180	     -8.55286758	     13.26931271	     -0.00376525	      0.55649498	     -1.20574498	    124.35623391	    -48.37475896	      6.46251888	     88.00493859	      1.53597594	     11.30001398	    -18.15871195	      0.00000000	    124.13215249	    -17.33968433	      1.35344195	     79.62793326	      1.38976961	      7.19355869	     -3.76782592	      0.00000000	      0.00000000	      0.00000000	      0.00000000	     44.99990793	    -14.99999999	     44.99990793	     75.00017585	     45.00000026	      0.00000000	      0.00000000	     44.99990793	    -14.99999999	     44.99990793	     75.00017585	     45.00000026	      0.00000000	      0.00000000
      4.27500000	    -51.57411899	     -8.73539362	     13.16793301	     -0.00412200	      0.55787206	     -1.20594493	    123.78770207	    -48.37716838	      5.84350344	     87.69687718	      1.53059925	     11.18357846	    -18.26624685	      0.00000000	    124.08366376	    -17.25750699	      1.53871355	     79.40750576	      1.38592243	      6.95503607	     -3.95098331	      0.00000000	      0.00000000	      0.00000000	      0.00000000	     44.99990857	    -14.99999999	     44.99990857	     75.00017585	     45.00000026	      0.00000000	      0.00000000	     44.99990857	    -14.99999999	     44.99990857	     75.00017585	     45.00000026	      0.00000000	      0.00000000
      4.28000000	    -51.56877559	     -8.76721963	     13.20143476	     -0.00456872	      0.55908707	     -1.20629930	    123.55264301	    -48.41723467	      5.64529620	     87.43954738	      1.52610800	     11.11166126	    -18.25099647	      0.00000000	    123.92775025	    -17.12381548	      1.50174017	     79.16828654	      1.38174726	      6.82357720	     -4.10624941	      0.00000000	      0.00000000	      0.00000000	      0.00000000	     44.99990925	    -14.99999999	     44.99990925	     75.00017585	     45.00000026	      0.00000000	      0.00000000	     44.99990925	    -14.99999999	     44.99990925	     75.00017585	     45.00000026	      0.00000000	      0.00000000
      4.28500000	    -51.67279418	     -8.50707393	     13.33480279	     -0.00521534	      0.56003911	     -1.20655894	    123.87428995	    -48.35589828	      6.07253567	     87.22963466	      1.52244433	     10.90450515	    -18.34080891	      0.00000000	    123.66783448	    -17.02108115	      1.15610619	     78.91498941	      1.37732639	      6.81435665	     -4.10337291	      0.00000000	      0.00000000	      0.00000000	      0.00000000	     44.99990980	    -14.99999999	     44.99990980	     75.00017585	     45.00000026	      0.00000000	      0.00000000	     44.99990980	    -14.99999999	     44.99990980	     75.00017585	     45.00000026	      0.00000000	      0.00000000
      4.29000000	    -51.66974718	     -8.48891526	     13.36539593	     -0.00562079	      0.56122332	     -1.20680000	    123.69308814	    -48.36244769	      5.93626517	     86.98698950	      1.51820937	     10.79754509	    -18.36719209	      0.00000000	    123.49188289	    -16.93367747	      1.06930730	     78.68563126	      1.37332334	      6.67552255	     -4.21813349	      0.00000000	      0.00000000	      0.00000000	      0.00000000	     44.99991040	    -14.99999999	     44.99991040	     75.00017585	     45.00000026	      0.00000000	      0.00000000	     44.99991040	    -14.99999999	     44.99991040	     75.00017585	     45.00000026	      0.00000000	      0.00000000
      4.29500000	    -51.71469389	     -8.46033714	     13.40427311	     -0.00612311	      0.56232144	     -1.20701935	    123.59416016	    -48.35243722	      5.86136039	     86.73754318	      1.51385571	     10.67847979	    -18.45627866	      0.00000000	    123.34681424	    -16.83445583	      0.97887467	     78.42992666	      1.36886045	      6.52462689	     -4.22103222	      0.00000000	      0.00000000	      0.00000000	      0.00000000	     44.99991099	    -14.99999999	     44.99991099	     75.00017585	     45.00000026	      0.00000000	      0.00000000	     44.99991099	    -14.99999999	     44.99991099	     75.00017585	     45.00000026	      0.00000000	      0.00000000
      4.30000000	    -51.68220530	     -8.47288471	     13.41312722	     -0.00650627	      0.56352799	     -1.20725540	    123.32497498	    -48.35434556	      5.65682355	     86.49046730	      1.50954343	     10.58383256	    -18.46639478	      0.00000000	    123.17096956	    -16.73864354	      0.95765338	     78.21683924	      1.36514138	      6.44439608	     -4.38311921	      0.00000000	      0.00000000	      0.00000000	      0.00000000	     44.99991161	    -14.99999999	     44.99991161	     75.00017585	     45.00000026	      0.00000000	      0.00000000	     44.99991161	    -14.99999999	     44.99991161	     75.00017585	     45.00000026	      0.00000000	      0.00000000
      4.30500000	    -51.67218720	     -8.53929113	     13.41918110	     -0.00689344	      0.56468839	     -1.20750300	    123.03041061	    -48.37996404	      5.37482361	     86.23906724	      1.50515567	     10.46712121	    -18.52271579	      0.00000000	    123.05232760	    -16.62735552	      0.97918048	     77.99591883	      1.36128559	      6.29210993	     -4.50595745	      0.00000000	      0.00000000	      0.00000000	      0.00000000	     44.99991212	    -14.99999999	     44.99991212	     75.00017585	     45.00000026	      0.00000000	      0.00000000	     44.99991212	    -14.99999999	     44.99991212	     75.00017585	     45.00000026	      0.00000000	      0.00000000
      4.31000000	    -51.65606037	     -8.50071749	     13.48788170	     -0.00727930	      0.56580724	     -1.20773768	    122.90065398	    -48.39956360	      5.32886876	     86.02649363	      1.50144556	     10.36651053	    -18.56907110	      0.00000000	    122.84599950	    -16.51789668	      0.87319076	     77.76362158	      1.35723123	      6.20951294	     -4.55360012	      0.00000000	      0.00000000	      0.00000000	      0.00000000	     44.99991262	    -14.99999999	     44.99991262	     75.00017585	     45.00000026	      0.00000000	      0.00000000	     44.99991262	    -14.99999999	     44.99991262	     75.00017585	     45.00000026	      0.00000000	      0.00000000
